<svg xmlns="http://www.w3.org/2000/svg" version="1.1" viewBox="-5.0 -10.0 110.0 135.0">
 <path d="m64.211 39.102-2.1406 0.23828-0.089843-2.1484c-0.21094-5.2109-2.5312-10.25-6.3594-13.828-1.6406-1.5195-3.7617-2.3594-5.9805-2.3594-3.8984 0-7.2891 2.5117-8.4297 6.2383-1.2812 4.1602-4.0898 7.8516-7.9219 10.391-6.5781 4.3594-10.781 11.398-11.238 18.84-0.41016 6.5781 1.8008 12.859 6.2305 17.691 2.2383 2.4414 5.4492 3.8398 8.8086 3.8398h25.859c3.4102 0 6.6484-1.4414 8.8984-3.9414 2.9688-3.3086 4.9609-7.3203 5.75-11.59 1.3906-7.5508-0.76953-15.07-5.9297-20.629-1.8594-2-4.7109-3.0391-7.4492-2.7305zm9.4492 22.648c-0.64844 3.5391-2.3086 6.8789-4.7891 9.6406-1.4883 1.6602-3.6484 2.6094-5.9219 2.6094h-4.1211l-2.6016-2.6016c-3.0508-3.0508-5.2695-7.0703-5.2305-11.379 0.011718-1.2812-1.1914-2.2891-2.5195-1.9492-0.89844 0.23047-1.4805 1.0898-1.4688 2.0195 0.019532 3.8789 1.2109 7.6016 3.4414 10.762l2.2188 3.1484h-15.57c-2.2383 0-4.3789-0.92969-5.8594-2.5508-3.6914-4.0195-5.5312-9.25-5.1914-14.73 0.39062-6.1914 3.9219-12.078 9.4609-15.75 4.5898-3.0391 7.9688-7.4805 9.5195-12.52 0.46875-1.5117 1.6406-2.75 3.1484-3.2109 1.6992-0.53125 3.4688-0.10156 4.7188 1.0586 3.25 3.0312 5.1094 7.3008 5.1094 11.73l0.03125 5.2891c0 1.2617 1.3281 2.0781 2.4609 1.5195l2.6094-1.3008c1.8203-0.91016 4.2383-0.46875 5.6289 1.0195 4.2891 4.6289 6.0781 10.898 4.9297 17.199z"/>
<text x="0.0" y="117.5" font-size="5.0" font-weight="bold" font-family="Arbeit Regular, Helvetica, Arial-Unicode, Arial, Sans-serif" fill="#000000">Created by Gregor Cresnar</text><text x="0.0" y="122.5" font-size="5.0" font-weight="bold" font-family="Arbeit Regular, Helvetica, Arial-Unicode, Arial, Sans-serif" fill="#000000">from Noun Project</text></svg>